<svg viewBox="0 0 512 512" xmlns="http://www.w3.org/2000/svg"><g><path style="fill:#cc0000;" d="m512 177.333v157.334c0 97.782-79.551 177.333-177.333 177.333h-157.334c-97.782 0-177.333-79.551-177.333-177.333v-157.334c0-97.782 79.551-177.333 177.333-177.333h78.667c11.046 0 20 8.954 20 20v78.667c0 11.046-8.954 20-20 20s-20-8.954-20-20v-58.667h-58.667c-75.726 0-137.333 61.607-137.333 137.333v157.334c0 75.726 61.607 137.333 137.333 137.333h157.334c75.726 0 137.333-61.607 137.333-137.333v-157.334c0-24.149-6.35-47.889-18.361-68.653-5.531-9.562-2.265-21.796 7.297-27.327 9.559-5.53 21.795-2.265 27.326 7.297 15.53 26.844 23.738 57.51 23.738 88.683zm-233.712 23.693 118.6-171.355c6.287-9.083 18.745-11.349 27.827-5.063 9.083 6.286 11.35 18.745 5.063 27.828l-121.496 175.54c21.138 39.277-7.441 87.357-52.282 87.357-32.717 0-59.333-26.617-59.333-59.333 0-41.962 42.684-70.818 81.621-54.974zm-2.955 54.974c0-10.661-8.673-19.333-19.333-19.333s-19.333 8.673-19.333 19.333 8.673 19.333 19.333 19.333 19.333-8.672 19.333-19.333z"/></g></svg>
